<?xml version="1.0" encoding="UTF-8" standalone="no"?>
<!DOCTYPE svg PUBLIC "-//W3C//DTD SVG 1.1//EN"
 "http://www.w3.org/Graphics/SVG/1.1/DTD/svg11.dtd">
<!-- Generated by graphviz version 2.42.4 (0)
 -->
<!-- Title: UseCasesOverview Pages: 1 -->
<svg width="1314pt" height="600pt"
 viewBox="0.00 0.00 1313.84 600.37" xmlns="http://www.w3.org/2000/svg" xmlns:xlink="http://www.w3.org/1999/xlink">
<g id="graph0" class="graph" transform="scale(1 1) rotate(0) translate(18 582.37)">
<title>UseCasesOverview</title>
<text text-anchor="middle" x="638.92" y="-545.97" font-family="DejaVu Sans" font-size="18.00">Script Dependency Inspector — product use cases</text>
<g id="clust1" class="cluster">
<title>cluster_inspector</title>
<path fill="transparent" stroke="#94a3b8" d="M161,-223.37C161,-223.37 1067.84,-223.37 1067.84,-223.37 1073.84,-223.37 1079.84,-229.37 1079.84,-235.37 1079.84,-235.37 1079.84,-516.37 1079.84,-516.37 1079.84,-522.37 1073.84,-528.37 1067.84,-528.37 1067.84,-528.37 161,-528.37 161,-528.37 155,-528.37 149,-522.37 149,-516.37 149,-516.37 149,-235.37 149,-235.37 149,-229.37 155,-223.37 161,-223.37"/>
<text text-anchor="middle" x="614.42" y="-509.97" font-family="DejaVu Sans" font-size="18.00">Script Dependency Inspector</text>
</g>
<!-- developer -->
<g id="node1" class="node">
<title>developer</title>
<polygon fill="#e8f3ff" stroke="#334155" stroke-width="1.2" points="108,-214.37 0,-214.37 0,-178.37 108,-178.37 108,-214.37"/>
<text text-anchor="middle" x="54" y="-193.97" font-family="DejaVu Sans" font-size="10.50">Godot developer</text>
</g>
<!-- build -->
<g id="node5" class="node">
<title>build</title>
<ellipse fill="#f4f7fb" stroke="#334155" stroke-width="1.2" cx="481.54" cy="-326.37" rx="68.68" ry="24.08"/>
<text text-anchor="middle" x="481.54" y="-329.97" font-family="DejaVu Sans" font-size="10.50">UC&#45;01</text>
<text text-anchor="middle" x="481.54" y="-317.97" font-family="DejaVu Sans" font-size="10.50">Build snapshot</text>
</g>
<!-- developer&#45;&gt;build -->
<g id="edge1" class="edge">
<title>developer&#45;&gt;build</title>
<path fill="none" stroke="#475569" d="M108.05,-191.53C163.21,-188.61 250.93,-190.03 319.63,-219.37 364.24,-238.42 360.78,-265.24 401.63,-291.37 409.92,-296.67 419.14,-301.55 428.28,-305.88"/>
<polygon fill="#475569" stroke="#475569" points="427.4,-307.98 434.26,-308.65 429.31,-303.85 427.4,-307.98"/>
</g>
<!-- scope -->
<g id="node6" class="node">
<title>scope</title>
<ellipse fill="#f4f7fb" stroke="#334155" stroke-width="1.2" cx="238.32" cy="-326.37" rx="60.62" ry="24.08"/>
<text text-anchor="middle" x="238.32" y="-329.97" font-family="DejaVu Sans" font-size="10.50">UC&#45;02</text>
<text text-anchor="middle" x="238.32" y="-317.97" font-family="DejaVu Sans" font-size="10.50">Select scope</text>
</g>
<!-- developer&#45;&gt;scope -->
<g id="edge2" class="edge">
<title>developer&#45;&gt;scope</title>
<path fill="none" stroke="#475569" d="M69.16,-214.71C86.16,-235.68 116.48,-269.88 149,-291.37 159.55,-298.34 171.69,-304.27 183.54,-309.16"/>
<polygon fill="#475569" stroke="#475569" points="182.81,-311.33 189.69,-311.63 184.5,-307.1 182.81,-311.33"/>
</g>
<!-- inspect -->
<g id="node7" class="node">
<title>inspect</title>
<ellipse fill="#f4f7fb" stroke="#334155" stroke-width="1.2" cx="769.64" cy="-327.37" rx="79.39" ry="24.08"/>
<text text-anchor="middle" x="769.64" y="-330.97" font-family="DejaVu Sans" font-size="10.50">UC&#45;03–06</text>
<text text-anchor="middle" x="769.64" y="-318.97" font-family="DejaVu Sans" font-size="10.50">Inspect and focus</text>
</g>
<!-- developer&#45;&gt;inspect -->
<g id="edge3" class="edge">
<title>developer&#45;&gt;inspect</title>
<path fill="none" stroke="#475569" d="M89.23,-178.34C106.62,-170.19 128.38,-161.48 149,-157.37 223.38,-142.55 243.98,-152.18 319.63,-157.37 478.84,-168.3 540.78,-152 666.44,-250.37 683.07,-263.38 674.8,-277.19 690.44,-291.37 696.62,-296.97 703.82,-301.84 711.3,-306.03"/>
<polygon fill="#475569" stroke="#475569" points="710.25,-308.05 717.06,-309.1 712.39,-304.03 710.25,-308.05"/>
</g>
<!-- navigate -->
<g id="node8" class="node">
<title>navigate</title>
<ellipse fill="#f4f7fb" stroke="#334155" stroke-width="1.2" cx="238.32" cy="-397.37" rx="70.01" ry="24.08"/>
<text text-anchor="middle" x="238.32" y="-400.97" font-family="DejaVu Sans" font-size="10.50">UC&#45;07</text>
<text text-anchor="middle" x="238.32" y="-388.97" font-family="DejaVu Sans" font-size="10.50">Open evidence</text>
</g>
<!-- developer&#45;&gt;navigate -->
<g id="edge4" class="edge">
<title>developer&#45;&gt;navigate</title>
<path fill="none" stroke="#475569" d="M60.7,-214.48C72.15,-248.11 101.04,-320.61 149,-362.37 157.03,-369.36 166.64,-375.06 176.5,-379.66"/>
<polygon fill="#475569" stroke="#475569" points="175.81,-381.84 182.67,-382.39 177.65,-377.68 175.81,-381.84"/>
</g>
<!-- export -->
<g id="node11" class="node">
<title>export</title>
<ellipse fill="#f4f7fb" stroke="#334155" stroke-width="1.2" cx="769.64" cy="-255.37" rx="55.31" ry="24.08"/>
<text text-anchor="middle" x="769.64" y="-258.97" font-family="DejaVu Sans" font-size="10.50">UC&#45;10</text>
<text text-anchor="middle" x="769.64" y="-246.97" font-family="DejaVu Sans" font-size="10.50">Export files</text>
</g>
<!-- developer&#45;&gt;export -->
<g id="edge5" class="edge">
<title>developer&#45;&gt;export</title>
<path fill="none" stroke="#475569" d="M61.44,-178C71.72,-151.87 94.6,-104.94 132,-85.37 342.45,24.77 459.69,31.57 666.44,-85.37 719.14,-115.18 747.66,-184.23 760.35,-224.56"/>
<polygon fill="#475569" stroke="#475569" points="758.32,-225.71 762.4,-231.26 762.67,-224.38 758.32,-225.71"/>
</g>
<!-- exportonly -->
<g id="node12" class="node">
<title>exportonly</title>
<ellipse fill="#f4f7fb" stroke="#334155" stroke-width="1.2" cx="481.54" cy="-255.37" rx="79.81" ry="24.08"/>
<text text-anchor="middle" x="481.54" y="-258.97" font-family="DejaVu Sans" font-size="10.50">UC&#45;12</text>
<text text-anchor="middle" x="481.54" y="-246.97" font-family="DejaVu Sans" font-size="10.50">Export&#45;only mode</text>
</g>
<!-- developer&#45;&gt;exportonly -->
<g id="edge6" class="edge">
<title>developer&#45;&gt;exportonly</title>
<path fill="none" stroke="#475569" d="M108.24,-182C173.51,-166.98 286.66,-149.42 377.63,-179.37 406.37,-188.83 433.65,-209.73 452.9,-227.23"/>
<polygon fill="#475569" stroke="#475569" points="451.79,-229.31 458.11,-232.06 454.89,-225.97 451.79,-229.31"/>
</g>
<!-- controls -->
<g id="node13" class="node">
<title>controls</title>
<ellipse fill="#f4f7fb" stroke="#334155" stroke-width="1.2" cx="238.32" cy="-255.37" rx="81.13" ry="24.08"/>
<text text-anchor="middle" x="238.32" y="-258.97" font-family="DejaVu Sans" font-size="10.50">UC&#45;13</text>
<text text-anchor="middle" x="238.32" y="-246.97" font-family="DejaVu Sans" font-size="10.50">Configure controls</text>
</g>
<!-- developer&#45;&gt;controls -->
<g id="edge7" class="edge">
<title>developer&#45;&gt;controls</title>
<path fill="none" stroke="#475569" d="M108.22,-213.59C129.56,-220.5 154.26,-228.49 176.31,-235.63"/>
<polygon fill="#475569" stroke="#475569" points="175.88,-237.88 182.76,-237.71 177.28,-233.55 175.88,-237.88"/>
</g>
<!-- editor -->
<g id="node2" class="node">
<title>editor</title>
<polygon fill="#eaf7ef" stroke="#334155" stroke-width="1.2" points="96.5,-450.37 11.5,-450.37 11.5,-414.37 96.5,-414.37 96.5,-450.37"/>
<text text-anchor="middle" x="54" y="-429.97" font-family="DejaVu Sans" font-size="10.50">Godot Editor</text>
</g>
<!-- editor&#45;&gt;navigate -->
<g id="edge9" class="edge">
<title>editor&#45;&gt;navigate</title>
<path fill="none" stroke="#475569" d="M103.35,-423.09C123.82,-419.16 148.02,-414.51 170.18,-410.26"/>
<polygon fill="#475569" stroke="#475569" points="102.78,-420.88 96.83,-424.34 103.64,-425.35 102.78,-420.88"/>
<polygon fill="#475569" stroke="#475569" points="170.72,-412.47 176.67,-409.01 169.86,-408 170.72,-412.47"/>
</g>
<!-- sync -->
<g id="node9" class="node">
<title>sync</title>
<ellipse fill="#f4f7fb" stroke="#334155" stroke-width="1.2" cx="238.32" cy="-468.37" rx="58.88" ry="24.08"/>
<text text-anchor="middle" x="238.32" y="-471.97" font-family="DejaVu Sans" font-size="10.50">UC&#45;08/11</text>
<text text-anchor="middle" x="238.32" y="-459.97" font-family="DejaVu Sans" font-size="10.50">Synchronize</text>
</g>
<!-- editor&#45;&gt;sync -->
<g id="edge8" class="edge">
<title>editor&#45;&gt;sync</title>
<path fill="none" stroke="#475569" d="M96.83,-440.63C121.06,-445.41 151.94,-451.51 178.58,-456.77"/>
<polygon fill="#475569" stroke="#475569" points="178.43,-459.06 185.25,-458.09 179.31,-454.6 178.43,-459.06"/>
</g>
<!-- tool -->
<g id="node3" class="node">
<title>tool</title>
<polygon fill="#fff5e6" stroke="#334155" stroke-width="1.2" points="1063.34,-215.37 940.34,-215.37 940.34,-179.37 1063.34,-179.37 1063.34,-215.37"/>
<text text-anchor="middle" x="1001.84" y="-200.97" font-family="DejaVu Sans" font-size="10.50">Diagram or</text>
<text text-anchor="middle" x="1001.84" y="-188.97" font-family="DejaVu Sans" font-size="10.50">documentation tool</text>
</g>
<!-- consumer -->
<g id="node4" class="node">
<title>consumer</title>
<polygon fill="#fff5e6" stroke="#334155" stroke-width="1.2" points="1277.84,-215.37 1120.84,-215.37 1120.84,-179.37 1277.84,-179.37 1277.84,-215.37"/>
<text text-anchor="middle" x="1199.34" y="-194.97" font-family="DejaVu Sans" font-size="10.50">Documentation consumer</text>
</g>
<!-- tool&#45;&gt;consumer -->
<g id="edge17" class="edge">
<title>tool&#45;&gt;consumer</title>
<path fill="none" stroke="#475569" d="M1063.36,-197.37C1079.39,-197.37 1097,-197.37 1114.06,-197.37"/>
<polygon fill="#475569" stroke="#475569" points="1114.31,-199.64 1120.81,-197.37 1114.31,-195.09 1114.31,-199.64"/>
</g>
<!-- build&#45;&gt;inspect -->
<g id="edge13" class="edge">
<title>build&#45;&gt;inspect</title>
<path fill="none" stroke="#475569" stroke-dasharray="5,2" d="M550.34,-326.61C590.26,-326.75 641.1,-326.92 683.68,-327.07"/>
<polygon fill="#475569" stroke="#475569" points="683.93,-329.35 690.44,-327.1 683.95,-324.8 683.93,-329.35"/>
<text text-anchor="middle" x="625.94" y="-328.57" font-family="DejaVu Sans" font-size="8.50">when graph shown</text>
</g>
<!-- build&#45;&gt;export -->
<g id="edge14" class="edge">
<title>build&#45;&gt;export</title>
<path fill="none" stroke="#475569" stroke-dasharray="5,2" d="M538.04,-312.6C589.15,-299.91 664.5,-281.21 715.01,-268.68"/>
<polygon fill="#475569" stroke="#475569" points="715.59,-270.88 721.35,-267.1 714.49,-266.46 715.59,-270.88"/>
<text text-anchor="middle" x="625.94" y="-300.57" font-family="DejaVu Sans" font-size="8.50">after validation</text>
</g>
<!-- scope&#45;&gt;build -->
<g id="edge11" class="edge">
<title>scope&#45;&gt;build</title>
<path fill="none" stroke="#475569" stroke-dasharray="5,2" d="M299.25,-326.37C331.57,-326.37 371.73,-326.37 406.04,-326.37"/>
<polygon fill="#475569" stroke="#475569" points="406.32,-328.64 412.82,-326.37 406.32,-324.09 406.32,-328.64"/>
<text text-anchor="middle" x="360.63" y="-328.57" font-family="DejaVu Sans" font-size="8.50">projects</text>
</g>
<!-- context -->
<g id="node10" class="node">
<title>context</title>
<ellipse fill="#f4f7fb" stroke="#334155" stroke-width="1.2" cx="1001.84" cy="-327.37" rx="70.01" ry="24.08"/>
<text text-anchor="middle" x="1001.84" y="-330.97" font-family="DejaVu Sans" font-size="10.50">UC&#45;09</text>
<text text-anchor="middle" x="1001.84" y="-318.97" font-family="DejaVu Sans" font-size="10.50">Inspect context</text>
</g>
<!-- inspect&#45;&gt;context -->
<g id="edge12" class="edge">
<title>inspect&#45;&gt;context</title>
<path fill="none" stroke="#475569" stroke-dasharray="5,2" d="M848.89,-327.37C873.44,-327.37 900.48,-327.37 924.86,-327.37"/>
<polygon fill="#475569" stroke="#475569" points="925.16,-329.64 931.66,-327.37 925.16,-325.09 925.16,-329.64"/>
<text text-anchor="middle" x="890.33" y="-329.57" font-family="DejaVu Sans" font-size="8.50">includes</text>
</g>
<!-- sync&#45;&gt;build -->
<g id="edge10" class="edge">
<title>sync&#45;&gt;build</title>
<path fill="none" stroke="#475569" stroke-dasharray="5,2" d="M281.26,-451.75C293.82,-446.33 307.48,-439.99 319.63,-433.37 365.03,-408.64 414.07,-374.91 445.92,-351.98"/>
<polygon fill="#475569" stroke="#475569" points="447.34,-353.76 451.27,-348.11 444.67,-350.08 447.34,-353.76"/>
<text text-anchor="middle" x="360.63" y="-419.57" font-family="DejaVu Sans" font-size="8.50">triggers</text>
</g>
<!-- export&#45;&gt;tool -->
<g id="edge16" class="edge">
<title>export&#45;&gt;tool</title>
<path fill="none" stroke="#475569" d="M817.78,-243.49C851.23,-235.06 896.6,-223.63 933.81,-214.26"/>
<polygon fill="#475569" stroke="#475569" points="934.44,-216.44 940.18,-212.65 933.32,-212.03 934.44,-216.44"/>
</g>
<!-- exportonly&#45;&gt;export -->
<g id="edge15" class="edge">
<title>exportonly&#45;&gt;export</title>
<path fill="none" stroke="#475569" stroke-dasharray="5,2" d="M561.47,-255.37C607.63,-255.37 665.02,-255.37 707.68,-255.37"/>
<polygon fill="#475569" stroke="#475569" points="707.9,-257.64 714.4,-255.37 707.9,-253.09 707.9,-257.64"/>
<text text-anchor="middle" x="625.94" y="-257.57" font-family="DejaVu Sans" font-size="8.50">without GraphEdit</text>
</g>
</g>
</svg>
